<svg width="569" height="60" viewBox="0 0 569 60" fill="none" xmlns="http://www.w3.org/2000/svg">
<rect x="0.5" y="0.5" width="568" height="59" rx="9.5" fill="#21364B" stroke="#BFBDC1"/>
<path d="M263.536 39.0716C258.279 39.0716 254 34.7921 254 29.5358C254 24.2795 258.279 20 263.536 20C268.792 20 273.072 24.2795 273.072 29.5358C273.072 34.7921 268.792 39.0716 263.536 39.0716ZM263.536 21.3955C259.042 21.3955 255.395 25.0517 255.395 29.5358C255.395 34.02 259.042 37.6761 263.536 37.6761C268.029 37.6761 271.676 34.02 271.676 29.5358C271.676 25.0517 268.029 21.3955 263.536 21.3955Z" fill="white"/>
<path d="M273.305 40.0019C273.128 40.0019 272.951 39.9367 272.812 39.7972L270.951 37.9365C270.681 37.6667 270.681 37.2202 270.951 36.9504C271.221 36.6806 271.667 36.6806 271.937 36.9504L273.798 38.811C274.067 39.0808 274.067 39.5274 273.798 39.7972C273.658 39.9367 273.481 40.0019 273.305 40.0019Z" fill="white"/>
<path d="M292.954 32.848C292.954 28.784 287.066 30.352 287.066 27.84C287.066 26.768 287.882 26.256 288.938 26.288C290.09 26.32 290.746 27.008 290.81 27.76H292.826C292.666 25.856 291.162 24.736 289.034 24.736C286.762 24.736 285.21 25.952 285.21 27.904C285.21 32 291.114 30.256 291.114 32.944C291.114 33.888 290.394 34.576 289.114 34.576C287.85 34.576 287.21 33.84 287.13 32.928H285.178C285.178 34.896 286.89 36.112 289.114 36.112C291.594 36.112 292.954 34.512 292.954 32.848ZM298.818 28.576C300.178 28.576 301.25 29.44 301.282 30.8H296.402C296.594 29.408 297.586 28.576 298.818 28.576ZM302.946 33.376H300.978C300.642 34.064 300.018 34.608 298.898 34.608C297.554 34.608 296.514 33.728 296.386 32.272H303.122C303.17 31.968 303.186 31.68 303.186 31.376C303.186 28.784 301.41 27.04 298.898 27.04C296.29 27.04 294.498 28.816 294.498 31.584C294.498 34.352 296.37 36.144 298.898 36.144C301.058 36.144 302.45 34.912 302.946 33.376ZM304.373 31.552C304.373 34.272 306.213 36.144 308.501 36.144C309.973 36.144 311.029 35.44 311.589 34.688V36H313.429V27.184H311.589V28.464C311.045 27.744 310.021 27.04 308.533 27.04C306.213 27.04 304.373 28.832 304.373 31.552ZM311.589 31.584C311.589 33.488 310.293 34.56 308.917 34.56C307.557 34.56 306.245 33.456 306.245 31.552C306.245 29.648 307.557 28.624 308.917 28.624C310.293 28.624 311.589 29.696 311.589 31.584ZM317.649 31.36C317.649 29.488 318.481 28.928 319.825 28.928H320.289V27.04C319.041 27.04 318.161 27.584 317.649 28.464V27.184H315.825V36H317.649V31.36ZM321.358 31.584C321.358 34.352 323.15 36.144 325.678 36.144C327.838 36.144 329.246 34.944 329.742 33.216H327.774C327.438 34.128 326.766 34.608 325.678 34.608C324.206 34.608 323.23 33.52 323.23 31.584C323.23 29.664 324.206 28.576 325.678 28.576C326.766 28.576 327.47 29.12 327.774 29.968H329.742C329.246 28.112 327.838 27.04 325.678 27.04C323.15 27.04 321.358 28.832 321.358 31.584ZM331.559 36H333.383V31.072C333.383 29.456 334.263 28.624 335.607 28.624C336.935 28.624 337.815 29.456 337.815 31.072V36H339.623V30.8C339.623 28.336 338.087 27.04 336.119 27.04C334.983 27.04 333.991 27.472 333.383 28.208V24.16H331.559V36Z" fill="white"/>
</svg>
