<svg width="24" height="24" viewBox="0 0 24 24" fill="none" xmlns="http://www.w3.org/2000/svg">
<g id="reshot-icon-house-XJ53QBRVTC 1" clip-path="url(#clip0_190_8209)">
<g id="14-House">
<path id="Vector" d="M23.7152 9.16453L12.4652 0.164531C12.3322 0.0580289 12.1669 0 11.9965 0C11.8261 0 11.6608 0.0580289 11.5277 0.164531L0.277744 9.16453C0.156379 9.2619 0.0683006 9.3946 0.0257122 9.54425C-0.0168763 9.6939 -0.0118664 9.8531 0.0400479 9.99978C0.0919621 10.1465 0.18821 10.2734 0.315458 10.3629C0.442705 10.4524 0.594651 10.5002 0.750244 10.4995H2.25024V23.2495C2.25024 23.4484 2.32926 23.6392 2.46991 23.7799C2.61057 23.9205 2.80133 23.9995 3.00024 23.9995H18.0002V22.4995H15.0002V15.7495C15.0002 15.5506 14.9212 15.3599 14.7806 15.2192C14.6399 15.0785 14.4492 14.9995 14.2502 14.9995H9.75024C9.55133 14.9995 9.36057 15.0785 9.21991 15.2192C9.07926 15.3599 9.00024 15.5506 9.00024 15.7495V22.4995H3.75024V10.4995H16.5002V8.99953H2.88774L12.0002 1.70953L21.1127 8.99953H21.0002C20.8013 8.99953 20.6106 9.07855 20.4699 9.2192C20.3293 9.35985 20.2502 9.55062 20.2502 9.74953V14.2495H21.7502V10.4995H23.2502C23.4052 10.4986 23.5561 10.4498 23.6821 10.3597C23.8082 10.2695 23.9032 10.1426 23.9542 9.99624C24.0052 9.84991 24.0096 9.69138 23.9668 9.54245C23.924 9.39352 23.8361 9.2615 23.7152 9.16453ZM10.5002 16.4995H13.5002V22.4995H10.5002V16.4995Z" fill="white"/>
<path id="Vector_2" d="M18.7501 19.9421L17.7826 18.9746L16.7251 20.0321L18.2251 21.5321C18.3656 21.6718 18.5557 21.7502 18.7538 21.7502C18.952 21.7502 19.1421 21.6718 19.2826 21.5321L23.7826 17.0321L22.7251 15.9746L18.7501 19.9421Z" fill="white"/>
</g>
</g>
<defs>
<clipPath id="clip0_190_8209">
<rect width="24" height="24" fill="white"/>
</clipPath>
</defs>
</svg>
