<svg width="61" height="62" viewBox="0 0 61 62" fill="none" xmlns="http://www.w3.org/2000/svg">
<g id="Union">
<path d="M54.0979 17.1781C46.4642 3.95607 29.5572 -0.574126 16.3352 7.05961C13.1863 8.87762 10.5333 11.2189 8.41973 13.909C6.09034 16.8737 4.41483 20.2629 3.45522 23.8437H0C1.02957 19.509 2.98679 15.4 5.78492 11.8388C8.15799 8.81849 11.1349 6.19284 14.6598 4.15772C29.4845 -4.40132 48.4408 0.677996 56.9998 15.5027C58.5438 18.177 59.644 20.9858 60.3232 23.8437H56.8662C56.2533 21.5618 55.3354 19.3215 54.0979 17.1781Z" fill="url(#paint0_linear_382_2417)"/>
<path d="M51.618 23.8437C51.1437 22.4266 50.5213 21.0356 49.7451 19.6912C43.4993 8.87318 29.6663 5.16666 18.8483 11.4124C13.8629 14.2908 10.3878 18.7804 8.7011 23.8437H12.2677C13.8154 19.9672 16.6283 16.5633 20.5237 14.3143C29.7391 8.99384 41.5227 12.1513 46.8432 21.3666C47.3097 22.1746 47.711 23.0023 48.0488 23.8437H51.618Z" fill="url(#paint1_linear_382_2417)"/>
<path d="M47.722 38.9224H51.3432C49.5705 43.6712 46.1989 47.8556 41.4663 50.5879C30.6483 56.8337 16.8154 53.1272 10.5696 42.3092C9.93514 41.2103 9.40338 40.0803 8.97134 38.9303H3.66845C4.27344 40.9449 5.11946 42.9217 6.21675 44.8223C9.88579 51.1772 15.6935 55.5227 22.2093 57.4772C29.2525 59.59 37.1116 58.9059 43.9794 54.9408C50.342 51.2673 54.6918 45.4466 56.6421 38.9224H60.1228C58.0863 46.6245 53.0994 53.5445 45.6548 57.8426C37.9547 62.2883 29.1371 63.0537 21.2465 60.6868C13.9451 58.4965 7.42779 53.6215 3.31486 46.4977C1.90888 44.0624 0.870987 41.5159 0.183836 38.9224H0.187542V38.0926H23.9727V38.9283C27.106 41.3708 31.5313 41.8144 35.1835 39.7058C35.5948 39.4684 35.983 39.2062 36.3472 38.9224H40.9729C39.9057 40.3809 38.5246 41.6461 36.8589 42.6077C30.8768 46.0615 23.3388 44.3797 19.3503 38.9303H12.5962C12.8571 39.5062 13.1487 40.0747 13.4715 40.6338C18.7919 49.8491 30.5756 53.0065 39.7909 47.686C43.4276 45.5864 46.1209 42.4801 47.722 38.9224Z" fill="url(#paint2_linear_382_2417)"/>
<path d="M41.4904 23.8437C37.6707 17.7857 29.7123 15.7804 23.4557 19.3926C21.5048 20.519 19.9442 22.0617 18.8213 23.8437H23.0943C23.6911 23.2556 24.3717 22.733 25.1311 22.2945C29.1397 19.9801 34.0798 20.7405 37.2204 23.8437H41.4904Z" fill="url(#paint3_linear_382_2417)"/>
<path d="M37.2287 24.6828L60.3232 24.6828V23.8451H37.2287V24.6828Z" fill="url(#paint4_linear_382_2417)"/>
</g>
<defs>
<linearGradient id="paint0_linear_382_2417" x1="30.1616" y1="5.9574e-08" x2="27.431" y2="77.9976" gradientUnits="userSpaceOnUse">
<stop stop-color="#21364B"/>
<stop offset="1" stop-color="white"/>
<stop offset="1" stop-color="white" stop-opacity="0"/>
</linearGradient>
<linearGradient id="paint1_linear_382_2417" x1="30.1616" y1="5.9574e-08" x2="27.431" y2="77.9976" gradientUnits="userSpaceOnUse">
<stop stop-color="#21364B"/>
<stop offset="1" stop-color="white"/>
<stop offset="1" stop-color="white" stop-opacity="0"/>
</linearGradient>
<linearGradient id="paint2_linear_382_2417" x1="30.1616" y1="5.9574e-08" x2="27.431" y2="77.9976" gradientUnits="userSpaceOnUse">
<stop stop-color="#21364B"/>
<stop offset="1" stop-color="white"/>
<stop offset="1" stop-color="white" stop-opacity="0"/>
</linearGradient>
<linearGradient id="paint3_linear_382_2417" x1="30.1616" y1="5.9574e-08" x2="27.431" y2="77.9976" gradientUnits="userSpaceOnUse">
<stop stop-color="#21364B"/>
<stop offset="1" stop-color="white"/>
<stop offset="1" stop-color="white" stop-opacity="0"/>
</linearGradient>
<linearGradient id="paint4_linear_382_2417" x1="30.1616" y1="5.9574e-08" x2="27.431" y2="77.9976" gradientUnits="userSpaceOnUse">
<stop stop-color="#21364B"/>
<stop offset="1" stop-color="white"/>
<stop offset="1" stop-color="white" stop-opacity="0"/>
</linearGradient>
</defs>
</svg>
