<svg width="54" height="13" viewBox="0 0 54 13" fill="none" xmlns="http://www.w3.org/2000/svg">
<g id="urexc">
<path d="M10.1058 0.404357C9.92713 1.05218 9.83778 1.85638 9.83778 2.81694V10.2557C9.83778 11.127 9.92713 11.9423 10.1058 12.7018H7.96132C8.02834 12.4561 8.07301 12.2215 8.09535 11.9982C8.11769 11.7524 8.1512 11.5067 8.19588 11.261C7.19063 12.3332 6.02902 12.8694 4.71103 12.8694C3.41539 12.8694 2.3543 12.4003 1.52776 11.462C0.701229 10.5015 0.287963 9.16114 0.287963 7.44106V2.81694C0.287963 2.03509 0.220946 1.23089 0.0869141 0.404357H2.19793C2.01922 1.20855 1.92986 2.01275 1.92986 2.81694V7.44106C1.92986 8.69203 2.13091 9.61909 2.53301 10.2222C3.11381 11.1605 3.94035 11.6296 5.01261 11.6296C6.08487 11.6296 6.93374 11.2051 7.55922 10.3563C8.006 9.6861 8.22939 8.71437 8.22939 7.44106V2.81694C8.22939 2.01275 8.14003 1.20855 7.96132 0.404357H10.1058Z" fill="white"/>
<path d="M14.7923 1.4096C14.7252 2.14678 14.6917 2.61589 14.6917 2.81694V6.70388H15.6635C16.4677 6.70388 17.1043 6.46932 17.5734 6.00021C18.0649 5.50876 18.3106 4.8721 18.3106 4.09025C18.3106 3.30839 18.0872 2.67174 17.6405 2.18029C17.082 1.6665 16.423 1.4096 15.6635 1.4096H14.7923ZM16.2666 7.70913L15.6635 7.74263H14.6917V10.2557C14.6917 11.127 14.7811 11.9423 14.9598 12.7018H12.8488C12.9828 11.8976 13.0498 11.0823 13.0498 10.2557V2.81694C13.0498 2.03509 12.9828 1.23089 12.8488 0.404357H15.6635C17.0038 0.404357 18.0649 0.750607 18.8467 1.44311C19.6733 2.13561 20.0865 3.01799 20.0865 4.09025C20.0865 5.14017 19.6733 6.01138 18.8467 6.70388C18.6904 6.81558 18.534 6.92727 18.3776 7.03896C18.2213 7.15066 18.0537 7.24001 17.875 7.30703L20.1871 10.7919C20.6562 11.4844 21.17 12.121 21.7284 12.7018H19.2824C18.8579 11.7189 18.467 10.9929 18.1096 10.5238L16.2666 7.70913Z" fill="white"/>
<path d="M24.9749 10.2557C24.9749 10.4121 25.0084 10.8924 25.0754 11.6966H27.2534C28.147 11.6966 28.9623 11.6184 29.6995 11.462V12.7018H23.1319C23.266 11.8976 23.333 11.0823 23.333 10.2557V2.81694C23.333 2.03509 23.266 1.23089 23.1319 0.404357H28.7278V1.64416C27.7896 1.48779 26.9742 1.4096 26.2817 1.4096H25.0754C25.0531 1.65533 25.0307 1.90105 25.0084 2.14678C24.986 2.3925 24.9749 2.61589 24.9749 2.81694V6.03372H26.2817C26.8402 6.03372 27.6555 5.94436 28.7278 5.76565V7.27352C28.0353 7.11715 27.2199 7.03896 26.2817 7.03896H24.9749V10.2557Z" fill="white"/>
<path d="M30.8457 12.7018C31.3372 12.2551 31.8733 11.6296 32.4541 10.8254L35.3693 6.73739L32.3871 2.31432C31.9627 1.71117 31.4489 1.07452 30.8457 0.404357H33.3253C33.5487 1.09686 33.9173 1.82287 34.4311 2.58238L36.3411 5.36356L38.3515 2.54888C38.7983 1.92339 39.2004 1.20855 39.5578 0.404357H41.4678C40.8647 0.985164 40.3285 1.59948 39.8594 2.2473L36.9442 6.33529L39.9264 10.7919C40.2392 11.2833 40.753 11.92 41.4678 12.7018H38.9882C38.7425 12.0763 38.3739 11.3503 37.8824 10.5238L35.9725 7.70913L33.962 10.5573C33.4705 11.2051 33.0573 11.92 32.7222 12.7018H30.8457Z" fill="white"/>
<path d="M52.364 3.65464C51.4035 2.04625 50.2307 1.24206 48.8457 1.24206C47.483 1.24206 46.3996 1.78936 45.5954 2.88396C44.7912 3.97856 44.3891 5.20719 44.3891 6.56985C44.3891 7.93251 44.7688 9.12764 45.5284 10.1552C46.3996 11.2722 47.4718 11.8306 48.7451 11.8306C50.3982 11.8306 51.8055 10.9929 52.9672 9.31751H53.0677V11.0264C51.8391 12.2551 50.387 12.8694 48.7116 12.8694C47.0362 12.8694 45.5954 12.2662 44.3891 11.0599C43.2051 9.83131 42.6132 8.33461 42.6132 6.56985C42.6132 4.80509 43.2051 3.30839 44.3891 2.07976C45.573 0.851132 46.958 0.236816 48.5441 0.236816C50.1301 0.236816 51.4258 0.661252 52.431 1.51012V3.65464H52.364Z" fill="white"/>
</g>
</svg>
